<svg version="1.1" id="Layer_1" xmlns="http://www.w3.org/2000/svg" xmlns:xlink="http://www.w3.org/1999/xlink" x="0px" y="0px"
	 width="100%" viewBox="0 0 208 160" enable-background="new 0 0 208 160" xml:space="preserve">
<path fill="#000000" opacity="1.000000" stroke="none" 
	d="
M78.018875,64.337906 
	C74.358986,64.321098 71.179489,64.496239 68.035774,64.237167 
	C64.245445,63.924824 61.676308,61.837334 61.834419,57.826572 
	C61.985828,53.985950 64.220261,51.685944 68.260071,51.682774 
	C91.905762,51.664227 115.551476,51.682331 139.197174,51.668327 
	C143.004028,51.666073 145.052750,53.687920 145.703262,57.248699 
	C146.000046,58.873257 146.119431,60.551338 146.121582,62.205402 
	C146.148605,83.020340 146.153549,103.835350 146.132294,124.650307 
	C146.124237,132.536957 144.353424,135.323425 139.483795,135.348785 
	C134.669159,135.373856 132.793106,132.422852 132.784485,124.692322 
	C132.767929,109.872078 132.792770,95.051758 132.749924,80.231606 
	C132.745331,78.639717 133.250519,76.931068 130.954544,73.761116 
	C129.079712,76.295502 127.669121,78.776680 125.729797,80.733994 
	C108.618652,98.003784 91.380020,115.147263 74.271553,132.419678 
	C71.634666,135.081833 68.748642,136.312759 65.315971,134.947845 
	C62.560417,133.852188 61.619091,131.253876 61.782001,128.365906 
	C61.927158,125.792641 63.838333,124.282280 65.477615,122.643890 
	C82.791016,105.339867 100.085960,88.017174 117.471794,70.786186 
	C119.102875,69.169632 121.319534,68.143936 123.264320,66.843918 
	C122.821945,66.008446 122.379570,65.172974 121.937195,64.337502 
	C107.463173,64.337502 92.989143,64.337502 78.018875,64.337906 
z"/>
</svg>